<?xml version="1.0" encoding="UTF-8" standalone="no"?>
<!-- Created with Inkscape (http://www.inkscape.org/) -->

<svg
   xmlns:dc="http://purl.org/dc/elements/1.1/"
   xmlns:cc="http://creativecommons.org/ns#"
   xmlns:rdf="http://www.w3.org/1999/02/22-rdf-syntax-ns#"
   xmlns:svg="http://www.w3.org/2000/svg"
   xmlns="http://www.w3.org/2000/svg"
   xmlns:sodipodi="http://sodipodi.sourceforge.net/DTD/sodipodi-0.dtd"
   xmlns:inkscape="http://www.inkscape.org/namespaces/inkscape"
   width="240"
   height="240"
   viewBox="0 0 63.499999 63.500002"
   version="1.1"
   id="svg8"
   sodipodi:docname="grafana_alertmanager_logo.svg"
   inkscape:version="0.92.5 (2060ec1f9f, 2020-04-08)">
  <defs
     id="defs2" />
  <sodipodi:namedview
     id="base"
     pagecolor="#ffffff"
     bordercolor="#666666"
     borderopacity="1.0"
     inkscape:pageopacity="0.0"
     inkscape:pageshadow="2"
     inkscape:zoom="3.6203867"
     inkscape:cx="173.36191"
     inkscape:cy="179.68805"
     inkscape:document-units="mm"
     inkscape:current-layer="layer1"
     showgrid="false"
     inkscape:window-width="2681"
     inkscape:window-height="1733"
     inkscape:window-x="3242"
     inkscape:window-y="169"
     inkscape:window-maximized="0"
     units="px" />
  <metadata
     id="metadata5">
    <rdf:RDF>
      <cc:Work
         rdf:about="">
        <dc:format>image/svg+xml</dc:format>
        <dc:type
           rdf:resource="http://purl.org/dc/dcmitype/StillImage" />
        <dc:title></dc:title>
      </cc:Work>
    </rdf:RDF>
  </metadata>
  <g
     inkscape:label="Layer 1"
     inkscape:groupmode="layer"
     id="layer1"
     transform="translate(0,-233.49997)">
    <g
       id="g3917"
       transform="matrix(0.17786299,0,0,0.17786299,11.98721,242.73601)">
      <path
         style="fill:#939fa5;stroke-width:0.35277775"
         d="m 18.970121,215.18867 c -40.745831,-0.10189 -74.123016,-0.22401 -74.171523,-0.27138 -0.04851,-0.0474 -0.08819,-0.32018 -0.08819,-0.60624 0,-0.6754 1.519563,-1.44752 3.717701,-1.88905 0.962695,-0.19337 3.496604,-1.0935 5.630909,-2.0003 2.134306,-0.9068 4.372895,-1.77171 4.974643,-1.92204 0.601749,-0.15033 2.459823,-0.93741 4.129055,-1.74907 2.463539,-1.1979 3.389058,-1.88794 4.915612,-3.66496 3.072296,-3.57636 4.385317,-5.31623 4.654028,-6.16699 0.630813,-1.99721 10.620226,-11.57695 13.220995,-12.67879 2.524503,-1.06953 12.8400877,-11.09023 15.00616425,-14.57719 0.66732855,-1.07427 1.85556155,-2.46934 2.64052035,-3.10014 0.7849587,-0.63082 2.0766121,-2.10324 2.8703409,-3.27205 0.7937288,-1.16882 1.6890434,-2.21949 1.9895924,-2.33482 0.7311602,-0.28057 3.0418471,0.32482 9.8886281,2.59077 3.150662,1.04272 6.087537,1.89342 6.526389,1.89046 0.842391,-0.006 3.146301,-1.52191 5.208629,-3.42782 3.910634,-3.61403 6.192164,-5.41666 7.176989,-5.6705 1.114477,-0.28725 1.685508,-0.97522 5.03471,-6.06573 0.702112,-1.06716 1.789835,-2.57528 2.417162,-3.35139 0.627331,-0.77611 1.354282,-2.0051 1.615454,-2.73108 0.261169,-0.72599 1.038754,-1.77629 1.727969,-2.33402 0.689212,-0.55773 2.602488,-3.01436 4.251724,-5.45918 1.649236,-2.44482 3.17761,-4.45045 3.396389,-4.45696 0.218775,-0.006 0.5954,0.22631 0.836944,0.51735 0.595489,0.71752 0.940502,0.66508 1.16055,-0.17639 0.10148,-0.38806 0.423383,-0.70556 0.715342,-0.70556 0.704299,0 2.357441,1.99302 2.357441,2.84212 0,1.3382 4.020731,2.76214 5.786874,2.04944 4.172652,-1.68383 13.206768,-9.39026 19.613124,-16.73071 1.067153,-1.22275 3.823328,-4.38361 6.124829,-7.02413 4.325263,-4.96239 6.146566,-6.53671 7.5622,-6.53671 0.452784,0 1.136304,-0.16755 1.518924,-0.37233 0.99344,-0.53167 2.04051,-0.0848 2.30913,0.98543 0.13177,0.52501 1.82671,2.44285 3.95438,4.4744 2.04806,1.95556 4.82344,4.70649 6.1675,6.11319 1.34406,1.4067 2.56682,2.55764 2.71724,2.55764 1.13002,0 16.48699,-14.79482 22.70328,-21.872222 1.95984,-2.231319 3.68362,-4.110266 3.83062,-4.175435 0.147,-0.06517 1.01207,-1.097043 1.92239,-2.293055 1.9563,-2.570283 3.70693,-4.666481 6.73375,-8.062969 1.22136,-1.37052 2.51944,-3.077538 2.88464,-3.79338 0.36519,-0.715839 0.93788,-1.528844 1.27265,-1.806674 1.79985,-1.493745 3.42546,-4.414848 4.75713,-8.548239 0.76282,-2.367731 2.16586,-6.051218 3.11786,-8.185523 0.952,-2.134305 1.93875,-4.431816 2.19278,-5.105583 0.25403,-0.673767 1.51592,-2.975642 2.8042,-5.115278 1.28828,-2.139635 2.69002,-4.572091 3.11497,-5.405451 0.42495,-0.83336 1.31635,-2.11703 1.98089,-2.852596 0.66454,-0.735566 1.6651,-2.355599 2.22348,-3.600076 0.55838,-1.244473 1.27337,-2.476891 1.58888,-2.738705 0.3155,-0.261811 0.94969,-1.297418 1.4093,-2.301346 1.49562,-3.266863 4.78447,-5.820872 9.11787,-7.080623 1.86452,-0.542029 2.134,-0.534254 5.20724,0.150301 3.66726,0.816867 7.27479,2.340331 8.31142,3.509912 0.38411,0.433384 1.25431,1.020251 1.93378,1.304153 1.18684,0.495889 3.80873,2.820924 6.86068,6.083899 0.79378,0.848678 2.33837,2.436177 3.43239,3.527778 1.09403,1.0916 2.2383,2.479897 2.54283,3.085101 0.30453,0.605208 1.29248,1.954583 2.19543,2.998611 0.90296,1.044032 2.10492,2.850737 2.67102,4.014904 0.5661,1.164166 1.66245,2.989791 2.43632,4.056944 0.77388,1.067152 2.61154,4.321527 4.08369,7.231944 1.47214,2.910416 2.80729,5.452967 2.967,5.650109 0.1597,0.197143 0.83707,1.705268 1.50526,3.351389 0.6682,1.646121 1.45882,3.54857 1.75694,4.227668 2.04336,4.654602 4.35597,11.224047 6.02304,17.109721 0.49461,1.746249 1.39191,4.921249 1.99399,7.055551 2.15514,7.63969 3.54469,21.25708 2.83074,27.74076 -1.10925,10.0735 -1.57456,11.50391 -5.02068,15.43383 -3.62872,4.13815 -6.69128,5.34308 -13.51083,5.31569 -4.02471,-0.0162 -10.25166,-1.29457 -14.46389,-2.96945 -2.32764,-0.92552 -4.28156,-1.64066 -7.23194,-2.64689 -1.06715,-0.36395 -2.58327,-0.98005 -3.36915,-1.36912 -0.78588,-0.38907 -3.00838,-1.21572 -4.93889,-1.83701 -1.93051,-0.62129 -4.54189,-1.49473 -5.80307,-1.94097 -4.21153,-1.49017 -5.97091,-1.9309 -10.49727,-2.62957 -5.41908,-0.83648 -13.79049,-0.93155 -18.11971,-0.20577 -1.62615,0.27261 -3.71069,0.59984 -4.63233,0.72717 l -1.67569,0.23151 v 2.96925 c 0,3.17597 -0.24012,2.45297 3.51026,10.56946 0.53793,1.16417 1.2411,2.83104 1.56261,3.70417 0.3215,0.87312 1.0182,2.36275 1.5482,3.31028 0.9385,1.67781 1.04653,1.74916 4.13865,2.73308 4.79044,1.52434 6.89997,2.09474 15.52222,4.19712 3.24843,0.79207 8.1382,2.92383 10.43361,4.54865 3.16238,2.23853 4.31325,3.25715 8.79278,7.78231 6.92879,6.99938 11.86908,10.06285 17.96701,11.14135 3.36369,0.59491 7.77925,1.70256 8.683,2.17814 0.37965,0.19978 1.40464,0.47949 2.27777,0.62156 0.87312,0.14208 1.90156,0.42363 2.28541,0.62566 0.38386,0.20204 1.97136,0.71904 3.52778,1.1489 3.05595,0.844 7.09205,2.43924 7.94514,3.14027 0.29104,0.23916 1.37745,0.78978 2.41426,1.22359 2.28571,0.95639 6.16756,3.29361 7.71495,4.6451 0.62335,0.54444 1.81398,1.29312 2.64583,1.66375 0.83185,0.37062 2.74783,1.56296 4.25774,2.64963 3.92264,2.82311 9.04594,5.81621 13.12972,7.67054 2.12755,0.96606 3.52777,1.80641 3.52777,2.11721 0,0.45062 -11.58766,0.51621 -92.25138,0.52215 -50.73826,0.004 -125.588875,-0.0766 -166.334705,-0.17845 z M 145.08817,147.48876 c 0,-0.17304 -0.72612,-1.12225 -1.6136,-2.10934 -1.20177,-1.33665 -1.55585,-1.97666 -1.38734,-2.5076 0.18512,-0.58327 0.0687,-0.71288 -0.64037,-0.71288 -0.47665,0 -1.24141,0.31797 -1.69947,0.70661 l -0.83283,0.7066 0.88194,0.72775 c 0.72042,0.59446 4.88646,3.37749 5.20347,3.47606 0.0485,0.0151 0.0882,-0.11416 0.0882,-0.2872 z m 1.81217,-6.414 c 0.3891,-0.20824 1.60898,-0.6133 2.71084,-0.90013 1.10186,-0.28684 2.16213,-0.69545 2.35615,-0.90803 0.25044,-0.27438 0.14811,-0.31311 -0.35277,-0.13349 -0.38806,0.13916 -1.18181,0.34666 -1.76389,0.46111 -1.25465,0.24669 -4.05695,1.40039 -4.05695,1.67024 0,0.28492 0.32337,0.22948 1.10662,-0.1897 z"
         id="path3931"
         inkscape:connector-curvature="0" />
      <path
         style="fill:#d6754c;stroke-width:0.35277775"
         d="m 18.529149,214.56718 c -49.514979,-0.0613 -73.11319,-0.20689 -73.11319,-0.45115 0,-0.40765 1.418261,-1.01223 2.998611,-1.27825 1.049824,-0.17672 6.01886,-2.0316 8.917076,-3.32864 0.829808,-0.37136 1.717007,-0.67521 1.971552,-0.67521 0.254546,0 2.045767,-0.7741 3.980492,-1.72022 3.668642,-1.79405 3.511786,-1.65136 8.191225,-7.452 0.547832,-0.6791 1.281959,-1.78778 1.631385,-2.46375 1.530043,-2.95985 10.239074,-11.28528 13.460288,-12.86741 2.655958,-1.30449 12.44599927,-10.78468 14.35569814,-13.90134 0.55119056,-0.89956 1.90109816,-2.50868 2.99979626,-3.57583 1.0986945,-1.06715 2.5133616,-2.69945 3.1437049,-3.62732 0.6303432,-0.92788 1.3860285,-1.77913 1.6792997,-1.89167 0.2932747,-0.11254 3.769621,0.84507 7.725219,2.12802 3.955595,1.28295 7.701576,2.33264 8.324401,2.33264 1.31922,0 4.290413,-1.79394 4.920199,-2.9707 0.232653,-0.43472 0.906173,-1.07581 1.496709,-1.42465 0.590539,-0.34884 2.102231,-1.56634 3.359315,-2.70556 1.369716,-1.2413 2.605088,-2.07131 3.082862,-2.07131 0.585815,0 1.187492,-0.58474 2.268735,-2.20487 0.809318,-1.21267 2.499148,-3.63361 3.755185,-5.37986 1.256033,-1.74625 2.622288,-3.88937 3.036121,-4.7625 0.41383,-0.87312 0.971035,-1.71581 1.238233,-1.87264 0.893353,-0.52433 1.928699,-1.8036 4.622958,-5.71208 1.471253,-2.1343 2.73456,-3.95392 2.807346,-4.04359 0.07278,-0.0897 0.440464,0.0294 0.817061,0.26458 0.914047,0.57084 1.417126,0.53886 1.899437,-0.12074 0.716777,-0.98026 1.768683,-0.10382 2.455192,2.04565 0.277766,0.86969 2.230172,1.97126 3.951276,2.22935 2.241991,0.33621 4.602889,-1.0923 12.035754,-7.28246 4.559487,-3.79719 6.213178,-5.52923 18.081204,-18.9379 2.641925,-2.98488 4.731367,-4.66116 5.211526,-4.181 0.103625,0.10363 0.68418,-0.0178 1.29013,-0.26988 1.32425,-0.55087 1.98367,-0.38814 1.98367,0.48952 0,0.36561 1.6593,2.24157 3.79236,4.28751 2.08579,2.00062 4.96748,4.86989 6.40375,6.37615 1.43626,1.50625 2.87041,2.73865 3.18698,2.73865 1.48191,0 15.54104,-13.34263 22.86092,-21.695835 2.04031,-2.328333 3.93822,-4.41737 4.21758,-4.642301 0.27937,-0.224935 1.09261,-1.188025 1.8072,-2.140208 1.61195,-2.147894 3.41778,-4.301779 6.53701,-7.796945 1.32854,-1.488663 2.70599,-3.2729 3.06102,-3.964979 0.35502,-0.692076 0.89506,-1.465446 1.20009,-1.718599 1.69823,-1.409404 3.68762,-4.984263 4.92005,-8.841133 1.90029,-5.946947 6.58262,-16.366937 8.89985,-19.805603 0.70057,-1.039625 1.67446,-2.683979 2.1642,-3.654117 0.48974,-0.970139 1.43907,-2.37471 2.10965,-3.121269 0.67056,-0.746559 1.66686,-2.355105 2.21398,-3.574545 0.54713,-1.219443 1.17209,-2.326749 1.38879,-2.460681 0.21671,-0.133932 0.88301,-1.224135 1.48067,-2.422677 0.59766,-1.198537 1.74504,-2.7818 2.54974,-3.518358 1.77671,-1.626253 5.11405,-3.319191 7.14305,-3.623458 2.9533,-0.442874 10.10617,1.638056 12.13532,3.530441 0.48507,0.452374 1.43757,1.102049 2.11667,1.443722 0.67909,0.341669 2.40174,1.709169 3.8281,3.038884 1.42635,1.329714 2.71949,2.417663 2.87364,2.417663 0.15414,0 0.77203,0.76635 1.37308,1.703003 0.60104,0.93665 1.72984,2.214933 2.50844,2.84063 0.77859,0.625697 1.73336,1.760432 2.12169,2.521631 0.38833,0.761203 1.44128,2.211814 2.33987,3.223584 0.8986,1.01177 1.99304,2.651869 2.43211,3.644671 0.43906,0.992797 1.17901,2.272336 1.64434,2.843424 0.46532,0.571083 1.33725,1.832084 1.93762,2.802223 1.18009,1.906908 7.86888,15.044278 7.86888,15.455158 0,0.13746 0.69374,1.875659 1.54165,3.862662 1.8059,4.231996 4.35872,11.460486 5.63643,15.959955 0.49589,1.74625 1.39422,4.92125 1.99631,7.055555 1.26442,4.482212 2.24737,10.783772 2.87086,18.404682 0.34599,4.22905 0.34772,6.30145 0.008,9.87778 -0.98284,10.35471 -1.38157,11.61063 -4.93363,15.54007 -2.07146,2.29154 -2.84862,2.88959 -4.71204,3.62608 -2.07042,0.81829 -2.65152,0.88071 -8.05229,0.86483 -5.10965,-0.015 -6.2303,-0.1277 -9.17222,-0.92235 -3.44372,-0.93018 -14.49471,-4.86711 -16.33878,-5.82072 -0.56854,-0.294 -4.57718,-1.7021 -8.9081,-3.12911 -6.04103,-1.99048 -8.98156,-2.76346 -12.62971,-3.32 -5.62686,-0.85839 -12.55333,-0.95122 -16.84594,-0.22576 -1.62615,0.27482 -3.79419,0.60779 -4.81788,0.73992 -2.59153,0.33451 -2.90125,0.75318 -2.90125,3.92191 0,2.72088 0.4039,3.85645 3.68513,10.36072 0.44047,0.87313 1.00139,2.2225 1.24651,2.99861 0.24511,0.77611 0.99903,2.47763 1.67538,3.78116 1.34141,2.58533 1.71033,2.81426 6.97492,4.32842 1.16417,0.33483 2.638,0.82996 3.27517,1.10029 0.63717,0.27034 1.5103,0.49101 1.94028,0.4904 0.42998,-7e-4 1.89303,0.3051 3.25122,0.67936 1.35819,0.37426 3.8642,1.02619 5.5689,1.44873 6.35291,1.57468 11.4201,4.8933 18.57523,12.16534 6.83702,6.94873 12.56068,10.34617 19.24753,11.42493 1.3582,0.21911 3.5807,0.72682 4.93889,1.12823 1.3582,0.40142 3.50132,1.02441 4.7625,1.38444 7.22761,2.06323 10.14451,3.10419 14.11089,5.03579 5.07048,2.4693 7.45591,3.84675 9.09727,5.25316 0.63776,0.54646 1.96213,1.40026 2.94305,1.89733 0.98093,0.49707 3.23726,1.90751 5.01406,3.13431 4.25539,2.93814 8.6423,5.50402 12.66233,7.40611 l 3.26823,1.54638 -92.78055,-0.0563 c -51.0293,-0.031 -125.681481,-0.097 -165.893735,-0.14677 z M 146.49928,148.53601 c 0,-0.37598 -1.34589,-2.09362 -3.12166,-3.98389 -0.90814,-0.9667 -1.10001,-1.35774 -0.73065,-1.48904 3.60587,-1.28169 5.82013,-2.00786 7.67707,-2.5177 2.19728,-0.60329 3.06474,-1.36276 2.18063,-1.90917 -0.47774,-0.29526 -4.35867,0.82098 -7.18117,2.06544 -0.93771,0.41345 -2.26835,0.75173 -2.95697,0.75173 -1.53503,0 -3.62836,1.22828 -3.62836,2.12897 0,0.70677 0.17871,0.85448 4.23333,3.49924 2.62152,1.70996 3.52778,2.08359 3.52778,1.45442 z"
         id="path3929"
         inkscape:connector-curvature="0" />
      <path
         style="fill:#73848d;stroke-width:0.35277775"
         d="m 18.529149,214.56718 c -49.514979,-0.0613 -73.11319,-0.20689 -73.11319,-0.45115 0,-0.40765 1.418261,-1.01223 2.998611,-1.27825 1.049824,-0.17672 6.01886,-2.0316 8.917076,-3.32864 0.829808,-0.37136 1.717007,-0.67521 1.971552,-0.67521 0.254546,0 2.045767,-0.7741 3.980492,-1.72022 3.668642,-1.79405 3.511786,-1.65136 8.191225,-7.452 0.547832,-0.6791 1.281959,-1.78778 1.631385,-2.46375 1.530043,-2.95985 10.239074,-11.28528 13.460288,-12.86741 2.655958,-1.30449 12.44599927,-10.78468 14.35569814,-13.90134 0.55119056,-0.89956 1.90109816,-2.50868 2.99979626,-3.57583 1.0986945,-1.06715 2.5133616,-2.69945 3.1437049,-3.62732 0.6303432,-0.92788 1.3860285,-1.77913 1.6792997,-1.89167 0.2932747,-0.11254 3.769621,0.84507 7.725219,2.12802 3.955595,1.28295 7.701576,2.33264 8.324401,2.33264 1.31922,0 4.290413,-1.79394 4.920199,-2.9707 0.232653,-0.43472 0.906173,-1.07581 1.496709,-1.42465 0.590539,-0.34884 2.102231,-1.56634 3.359315,-2.70556 1.369716,-1.2413 2.605088,-2.07131 3.082862,-2.07131 0.585815,0 1.187492,-0.58474 2.268735,-2.20487 0.809318,-1.21267 2.499148,-3.63361 3.755185,-5.37986 1.256033,-1.74625 2.622288,-3.88937 3.036121,-4.7625 0.41383,-0.87312 0.971035,-1.71581 1.238233,-1.87264 0.893353,-0.52433 1.928699,-1.8036 4.622958,-5.71208 1.471253,-2.1343 2.73456,-3.95392 2.807346,-4.04359 0.07278,-0.0897 0.440464,0.0294 0.817061,0.26458 0.914047,0.57084 1.417126,0.53886 1.899437,-0.12074 0.716777,-0.98026 1.768683,-0.10382 2.455192,2.04565 0.277766,0.86969 2.230172,1.97126 3.951276,2.22935 2.241991,0.33621 4.602889,-1.0923 12.035754,-7.28246 4.559487,-3.79719 6.213178,-5.52923 18.081204,-18.9379 2.641925,-2.98488 4.731367,-4.66116 5.211526,-4.181 0.103625,0.10363 0.68418,-0.0178 1.29013,-0.26988 1.32425,-0.55087 1.98367,-0.38814 1.98367,0.48952 0,0.36561 1.6593,2.24157 3.79236,4.28751 2.08579,2.00062 4.96748,4.86989 6.40375,6.37615 1.43626,1.50625 2.87041,2.73865 3.18698,2.73865 1.48191,0 15.54104,-13.34263 22.86092,-21.695835 2.04031,-2.328333 3.93822,-4.41737 4.21758,-4.642301 0.27937,-0.224935 1.09261,-1.188025 1.8072,-2.140208 1.61195,-2.147894 3.41778,-4.301779 6.53701,-7.796945 1.32854,-1.488663 2.70599,-3.2729 3.06102,-3.964979 0.35502,-0.692076 0.89506,-1.465446 1.20009,-1.718599 1.69823,-1.409404 3.68762,-4.984263 4.92005,-8.841133 1.90029,-5.946947 6.58262,-16.366937 8.89985,-19.805603 0.70057,-1.039625 1.67446,-2.683979 2.1642,-3.654117 0.48974,-0.970139 1.43907,-2.37471 2.10965,-3.121269 0.67056,-0.746559 1.66686,-2.355105 2.21398,-3.574545 0.54713,-1.219443 1.17209,-2.326749 1.38879,-2.460681 0.21671,-0.133932 0.88301,-1.224135 1.48067,-2.422677 0.59766,-1.198537 1.74504,-2.7818 2.54974,-3.518358 1.77671,-1.626253 5.11405,-3.319191 7.14305,-3.623458 2.9533,-0.442874 10.10617,1.638056 12.13532,3.530441 0.48507,0.452374 1.43757,1.102049 2.11667,1.443722 0.67909,0.341669 2.40174,1.709169 3.8281,3.038884 1.42635,1.329714 2.71949,2.417663 2.87364,2.417663 0.15414,0 0.77203,0.76635 1.37308,1.703003 0.60104,0.93665 1.72984,2.214933 2.50844,2.84063 0.77859,0.625697 1.73336,1.760432 2.12169,2.521631 0.38833,0.761203 1.44128,2.211814 2.33987,3.223584 0.8986,1.01177 1.99304,2.651869 2.43211,3.644671 0.43906,0.992797 1.17901,2.272336 1.64434,2.843424 0.46532,0.571083 1.33725,1.832084 1.93762,2.802223 1.18009,1.906908 7.86888,15.044278 7.86888,15.455158 0,0.13746 0.69374,1.875659 1.54165,3.862662 1.8059,4.231996 4.35872,11.460486 5.63643,15.959955 0.49589,1.74625 1.39422,4.92125 1.99631,7.055555 1.26442,4.482212 2.24737,10.783772 2.87086,18.404682 0.34599,4.22905 0.34772,6.30145 0.008,9.87778 -0.98284,10.35471 -1.38157,11.61063 -4.93363,15.54007 -2.07146,2.29154 -2.84862,2.88959 -4.71204,3.62608 -2.07042,0.81829 -2.65152,0.88071 -8.05229,0.86483 -5.10965,-0.015 -6.2303,-0.1277 -9.17222,-0.92235 -3.44372,-0.93018 -14.49471,-4.86711 -16.33878,-5.82072 -0.56854,-0.294 -4.57718,-1.7021 -8.9081,-3.12911 -6.04103,-1.99048 -8.98156,-2.76346 -12.62971,-3.32 -5.62686,-0.85839 -12.55333,-0.95122 -16.84594,-0.22576 -1.62615,0.27482 -3.79419,0.60779 -4.81788,0.73992 -2.59153,0.33451 -2.90125,0.75318 -2.90125,3.92191 0,2.72088 0.4039,3.85645 3.68513,10.36072 0.44047,0.87313 1.00139,2.2225 1.24651,2.99861 0.24511,0.77611 0.99903,2.47763 1.67538,3.78116 1.34141,2.58533 1.71033,2.81426 6.97492,4.32842 1.16417,0.33483 2.638,0.82996 3.27517,1.10029 0.63717,0.27034 1.5103,0.49101 1.94028,0.4904 0.42998,-7e-4 1.89303,0.3051 3.25122,0.67936 1.35819,0.37426 3.8642,1.02619 5.5689,1.44873 6.35291,1.57468 11.4201,4.8933 18.57523,12.16534 6.83702,6.94873 12.56068,10.34617 19.24753,11.42493 1.3582,0.21911 3.5807,0.72682 4.93889,1.12823 1.3582,0.40142 3.50132,1.02441 4.7625,1.38444 7.22761,2.06323 10.14451,3.10419 14.11089,5.03579 5.07048,2.4693 7.45591,3.84675 9.09727,5.25316 0.63776,0.54646 1.96213,1.40026 2.94305,1.89733 0.98093,0.49707 3.23726,1.90751 5.01406,3.13431 4.25539,2.93814 8.6423,5.50402 12.66233,7.40611 l 3.26823,1.54638 -92.78055,-0.0563 c -51.0293,-0.031 -125.681481,-0.097 -165.893735,-0.14677 z M 267.00121,211.9631 c 0.0941,-0.15229 -0.35,-0.54521 -0.98693,-0.87316 -0.63694,-0.32794 -1.79306,-1.09842 -2.56918,-1.71218 -0.77611,-0.61375 -2.08109,-1.40605 -2.89996,-1.76068 -0.81886,-0.35462 -1.76083,-0.9453 -2.09326,-1.31264 -0.33243,-0.36733 -1.48808,-1.16536 -2.5681,-1.7734 -1.08002,-0.60804 -3.5894,-2.19146 -5.5764,-3.5187 -4.88007,-3.25971 -12.27474,-6.62593 -17.37755,-7.91066 -1.06715,-0.26868 -2.73403,-0.7512 -3.70417,-1.07226 -0.97014,-0.32107 -3.51014,-1.019 -5.64444,-1.55097 -11.2972,-2.81579 -12.99622,-3.47432 -16.80956,-6.51535 -1.21652,-0.97014 -4.19388,-3.72293 -6.61636,-6.11731 -7.77214,-7.68202 -11.32614,-9.86254 -19.69349,-12.08275 -5.37065,-1.42506 -12.34642,-3.26502 -17.08885,-4.50742 -3.25606,-0.85301 -4.99864,-1.70588 -7.10431,-3.47707 -3.41498,-2.87251 -7.66379,-5.71667 -11.70965,-7.83844 -2.32833,-1.22105 -4.64171,-2.50958 -5.14085,-2.8634 -0.49914,-0.35382 -1.7213,-1.00975 -2.71592,-1.45762 -2.59499,-1.16852 -8.12729,-5.52913 -12.31625,-9.7078 -3.6308,-3.62187 -4.43929,-4.79206 -5.77212,-8.35437 -0.46836,-1.25178 -1.4107,-2.65835 -2.6698,-3.98506 -1.07028,-1.12773 -2.25642,-2.64573 -2.63587,-3.37334 -0.37945,-0.7276 -0.86564,-1.32291 -1.08042,-1.32291 -0.21478,0 -2.0456,-1.6773 -4.06848,-3.72733 -3.31305,-3.35751 -4.7384,-4.30607 -4.40479,-2.93135 0.0647,0.26678 0.0132,1.32231 -0.11464,2.3456 -0.20154,1.6138 -0.48267,2.13091 -2.11995,3.89937 -3.51871,3.80063 -4.731532,8.17236 -3.518301,12.68204 0.555688,2.06553 0.932324,2.67763 2.915531,4.73827 1.52967,1.58938 2.20731,2.54902 2.06389,2.92275 -0.19296,0.50285 -0.31435,0.50429 -1.26067,0.0149 -1.4579,-0.75391 -1.59702,-0.68242 -0.75502,0.38801 0.40214,0.51124 0.73116,1.34904 0.73116,1.86178 0,1.66445 0.89986,2.50037 2.69162,2.50037 2.1129,0 11.0295,1.37536 12.03686,1.85665 0.43656,0.20858 0.79375,0.69056 0.79375,1.07106 0,0.75585 -0.13076,0.7537 -5.29167,-0.0871 -2.72519,-0.44398 -7.1193,-0.17724 -10.0435,0.60968 -2.641024,0.71072 -4.586702,2.5509 -6.141331,5.80833 -0.605701,1.26914 -1.10128,2.40389 -1.10128,2.52168 0,0.11778 1.40879,0.21414 3.130645,0.21414 3.747666,0 5.266786,0.47728 8.863796,2.78482 6.37961,4.09262 9.68458,5.70325 12.76236,6.21957 5.26399,0.88308 7.79071,1.74551 7.61336,2.59865 -0.14244,0.68522 0.25655,0.72088 -7.26337,-0.64909 -5.78977,-1.05479 -6.27622,-1.20699 -9.17222,-2.8699 -5.67344,-3.25775 -10.25621,-4.06412 -16.992904,-2.99001 -3.973717,0.63357 -4.570518,0.88973 -3.719117,1.59633 0.819866,0.68043 0.659662,1.31538 -0.505559,2.00369 -0.577324,0.34103 -1.796242,1.70284 -2.708705,3.02624 -2.077607,3.01326 -1.877099,3.38153 1.478019,2.71463 2.077317,-0.4129 2.871808,-0.39122 6.641499,0.1812 2.355056,0.35762 6.028167,0.9078 8.162477,1.22263 3.77704,0.55714 3.88347,0.59756 3.98989,1.51532 0.17584,1.51644 -0.75337,1.76173 -5.67347,1.49769 l -4.313646,-0.2315 -2.095912,1.2732 c -1.152754,0.70026 -2.502129,1.27563 -2.998611,1.2786 -1.556336,0.009 -1.902753,0.48892 -2.00322,2.77339 -0.05154,1.17195 -0.261571,2.44447 -0.466732,2.82782 -0.620575,1.15956 -0.422843,2.68818 0.529191,4.09108 1.052276,1.55062 0.950888,2.11665 -0.430922,2.40573 -0.550252,0.11512 -1.741265,0.89176 -2.64669,1.72586 -2.733445,2.51812 -6.71286,5.31465 -8.563045,6.01766 -0.959633,0.36464 -2.150752,0.94381 -2.646923,1.28707 -1.164163,0.80536 -7.43416,3.91321 -7.894803,3.91321 -0.193615,0 -1.810304,0.7189 -3.592643,1.59755 -2.618986,1.29111 -3.893925,2.22486 -6.6464,4.86774 -1.873182,1.7986 -3.405787,3.46563 -3.405787,3.70451 0,0.34313 22.339472,0.41938 106.379283,0.36308 58.5086,-0.0392 106.45629,-0.19586 106.55042,-0.34816 z M 115.45484,182.02282 c -0.29105,-0.18808 -0.88636,-0.3444 -1.32292,-0.34737 -0.43656,-0.003 -0.79375,-0.21586 -0.79375,-0.47308 0,-1.2285 -2.4095,-2.52572 -6.69453,-3.60416 -2.78737,-0.70151 -3.73035,-1.16662 -3.27943,-1.61753 0.42716,-0.42717 4.8199,0.2403 7.38135,1.12157 1.63915,0.56395 5.80123,3.34875 6.53808,4.37456 0.5829,0.81148 -0.78573,1.2201 -1.8288,0.54601 z m -125.2361061,8.87893 c 3.2373497,-1.44746 7.0924098,-3.93383 9.3486105,-6.02952 1.9943126,-1.85243 5.7707879,-6.16913 7.2502037,-8.28734 0.7439378,-1.06517 1.8188445,-2.0751 2.6458332,-2.48591 4.7750907,-2.37204 11.9056497,-7.10442 11.6880877,-7.75711 -0.06738,-0.20213 -1.141366,-0.64946 -2.386647,-0.99407 -5.352676,-1.48126 -6.035382,-1.68798 -7.247713,-2.19452 -2.3044821,-0.96287 -2.2258092,-1.03836 -3.6720322,3.52371 -1.0116466,3.19121 -1.8372524,4.81392 -3.7534812,7.37735 -0.8575039,1.14713 -1.9439994,2.89929 -2.4144321,3.8937 -1.09646148,2.31774 -3.1361237,4.70148 -4.1455972,4.84495 -0.5073579,0.0721 -0.7518259,0.32142 -0.6888938,0.70254 0.11926,0.72223 -0.1377915,0.8942 -3.348503,2.24025 -2.1495277,0.90116 -2.9359434,1.49097 -5.0565365,3.79236 -2.931283,3.18121 -2.68557,3.3707 1.7811009,1.37361 z M 47.410795,156.12448 c 2.321345,-1.82236 3.851899,-3.73499 2.988878,-3.73499 -0.299685,0 -1.304861,0.75406 -2.233725,1.6757 -3.862793,3.8327 -4.205869,4.76826 -0.755153,2.05929 z m 99.088485,-7.58847 c 0,-0.37598 -1.34589,-2.09362 -3.12166,-3.98389 -0.90814,-0.9667 -1.10001,-1.35774 -0.73065,-1.48904 3.60587,-1.28169 5.82013,-2.00786 7.67707,-2.5177 2.19728,-0.60329 3.06474,-1.36276 2.18063,-1.90917 -0.47774,-0.29526 -4.35867,0.82098 -7.18117,2.06544 -0.93771,0.41345 -2.26835,0.75173 -2.95697,0.75173 -1.53503,0 -3.62836,1.22828 -3.62836,2.12897 0,0.70677 0.17871,0.85448 4.23333,3.49924 2.62152,1.70996 3.52778,2.08359 3.52778,1.45442 z m 88.82836,-4.04698 c 0.55363,-0.28629 1.58442,-1.16011 2.29064,-1.94181 4.69466,-5.19642 6.32543,-17.41409 4.12128,-30.87637 -0.93659,-5.72038 -4.36312,-19.80586 -5.78874,-23.795847 -0.30335,-0.849012 -0.55155,-1.803862 -0.55155,-2.121891 0,-0.318026 -0.34133,-1.210878 -0.75851,-1.984117 -0.41718,-0.773236 -0.87923,-1.882137 -1.02678,-2.46422 -0.45305,-1.78731 -1.7425,-5.139185 -2.70271,-7.025587 -0.5022,-0.98662 -1.43114,-3.109129 -2.0643,-4.716684 -1.09437,-2.778513 -5.5232,-10.763189 -8.23782,-14.851838 -0.69369,-1.044815 -1.42001,-2.15133 -1.61404,-2.458928 -3.52929,-5.59503 -4.78784,-7.137096 -10.187,-12.481866 -5.11277,-5.061267 -6.87751,-6.422029 -10.97967,-8.466228 -3.53761,-1.76287 -5.00174,-2.169912 -7.4984,-2.084621 -1.79334,0.06126 -2.59179,0.301061 -4.26219,1.280054 -3.918,2.296277 -5.41098,4.53801 -6.25957,9.398843 -1.46807,8.409343 -0.66644,20.401596 2.13118,31.881856 1.00347,4.117837 1.15956,4.683583 2.2873,8.290277 0.39434,1.26118 1.02301,3.32493 1.39703,4.586111 0.81292,2.741129 3.0729,8.465717 4.79023,12.133787 0.68245,1.457639 1.24081,2.835109 1.24081,3.061045 0,0.711084 6.61867,13.992414 8.2107,16.475964 0.83637,1.30474 1.70452,2.79907 1.92922,3.32073 1.03535,2.40366 8.89301,12.21915 13.25896,16.56259 5.00021,4.97442 7.17137,6.4437 12.05529,8.15809 2.3116,0.81144 3.21934,0.95906 5.01713,0.81593 1.20721,-0.0961 2.64789,-0.40898 3.20151,-0.69527 z M 56.923437,142.86324 c 1.353425,-1.16486 3.487917,-2.58366 4.743312,-3.15288 1.255395,-0.56922 2.278514,-1.16397 2.273603,-1.32166 -0.009,-0.2898 -5.591975,-2.57976 -6.289487,-2.57976 -0.345141,0 -0.612645,0.74715 -1.326212,3.70416 -0.205214,0.85041 -1.050308,2.86411 -2.183751,5.20348 -0.317538,0.65539 0.501643,0.10976 2.782535,-1.85334 z"
         id="path3927"
         inkscape:connector-curvature="0" />
      <path
         style="fill:#a16d57;stroke-width:0.35277775"
         d="m 93.186259,214.66998 c -0.103215,-0.10321 -33.227117,-0.19094 -73.608665,-0.19494 -42.356678,-0.004 -73.50287,-0.13975 -73.614508,-0.32038 -0.206355,-0.33389 1.620677,-1.08739 2.636619,-1.08739 0.334959,0 1.541583,-0.41319 2.681385,-0.91819 2.411757,-1.06856 6.124544,-2.49123 7.893202,-3.02454 2.452023,-0.73937 7.257933,-3.42997 8.496489,-4.75678 0.695502,-0.74506 1.886127,-2.1482 2.645834,-3.11808 0.759707,-0.96987 1.584949,-1.97862 1.833865,-2.24166 0.24892,-0.26304 0.776623,-1.13638 1.172672,-1.94075 1.076551,-2.18646 10.504939,-11.24779 12.867202,-12.36627 1.623416,-0.76865 6.2257267,-4.5292 8.4381018,-6.89478 0.3880556,-0.41493 1.7559901,-1.81875 3.0398507,-3.1196 1.283864,-1.30085 2.90438041,-3.25994 3.6011518,-4.35354 0.6967678,-1.09359 1.9657552,-2.60172 2.8199713,-3.35139 0.854216,-0.74966 2.2266308,-2.29122 3.049806,-3.42568 1.203459,-1.65853 1.6450697,-2.02671 2.2540629,-1.87922 2.6439985,0.64032 6.1912245,1.72932 9.4004335,2.88593 4.773979,1.72057 6.989674,1.82392 8.982596,0.41897 0.76883,-0.542 1.655975,-1.37891 1.971435,-1.8598 0.315458,-0.48088 1.512038,-1.56425 2.65907,-2.40747 1.147028,-0.84323 2.551772,-2.02941 3.121649,-2.63598 0.569877,-0.60656 1.391243,-1.10284 1.825251,-1.10284 0.445576,0 1.112516,-0.42234 1.53198,-0.97014 2.467909,-3.22293 3.245731,-4.31021 4.10102,-5.73263 0.525004,-0.87313 1.491911,-2.25448 2.148681,-3.06967 0.656773,-0.81519 1.47387,-2.10698 1.815768,-2.87064 0.341898,-0.76365 1.121209,-1.80883 1.7318,-2.3226 1.032175,-0.86852 2.007814,-2.1733 5.476117,-7.32354 l 1.349882,-2.0045 1.062659,0.59339 c 1.01534,0.56696 1.085871,0.56232 1.58381,-0.10438 0.678,-0.90777 1.662387,-0.35501 1.914447,1.07501 0.208093,1.1806 1.879437,2.43405 4.020865,3.01551 1.3156,0.35723 1.620887,0.30148 3.384794,-0.61811 1.903232,-0.99223 4.566052,-2.93974 9.391229,-6.86851 3.108272,-2.53082 10.03972,-9.69397 15.579174,-16.09994 4.88993,-5.65485 6.191376,-6.79369 7.763721,-6.79369 0.60082,0 1.19052,-0.15875 1.31044,-0.35278 0.4156,-0.67245 1.22241,-0.34827 1.45672,0.58532 0.13819,0.5506 1.78003,2.40851 3.97481,4.49792 2.05665,1.9579 4.91222,4.79013 6.34572,6.29385 1.43351,1.50371 2.86795,2.73402 3.18766,2.73402 1.48143,0 15.86574,-13.63847 23.25436,-22.048605 2.04553,-2.328333 3.92275,-4.392083 4.17161,-4.586111 0.24886,-0.194028 1.0521,-1.157122 1.78496,-2.140207 1.63807,-2.197344 3.42048,-4.325825 6.5763,-7.853136 1.33188,-1.488663 2.59161,-3.103531 2.79941,-3.5886 0.20779,-0.48507 0.88413,-1.43757 1.50299,-2.116667 2.28417,-2.506549 3.55592,-4.853894 4.88816,-9.022383 2.12981,-6.664088 5.82759,-14.941104 8.47725,-18.975284 0.83162,-1.266168 1.94651,-3.144357 2.47752,-4.173756 0.53101,-1.029394 1.40914,-2.34788 1.95141,-2.929963 0.54226,-0.582084 1.55383,-2.19746 2.24793,-3.589726 0.6941,-1.392262 1.43124,-2.635983 1.63809,-2.763819 0.20684,-0.12784 0.84648,-1.211213 1.42142,-2.4075 1.47701,-3.07328 4.08272,-5.230365 7.69759,-6.372303 l 2.74883,-0.868355 3.0343,0.676109 c 4.00578,0.892577 6.55074,1.918017 7.84628,3.161517 0.58209,0.558701 1.61396,1.251264 2.29306,1.539028 0.67909,0.287768 1.98921,1.307514 2.91135,2.266107 0.92215,0.958589 2.20811,2.10706 2.85768,2.552156 0.64957,0.445093 1.6068,1.482235 2.12716,2.304761 0.52037,0.822526 1.65887,2.079536 2.53,2.793361 0.87112,0.713825 1.79559,1.804585 2.05436,2.423911 0.25877,0.61933 1.27982,2.050909 2.26899,3.18129 0.98916,1.130381 2.28562,3.031088 2.881,4.223794 0.59538,1.192706 1.71152,3.041682 2.48032,4.108834 1.48802,2.065493 6.81054,12.288661 8.54055,16.404166 2.52399,6.004284 3.58175,8.758 5.01384,13.052777 1.4671,4.399763 2.00588,6.198982 4.43691,14.816664 2.08947,7.40692 3.51446,20.93715 2.84454,27.00885 -1.10121,9.98056 -1.70146,11.81219 -5.1165,15.61282 -1.65424,1.84101 -2.89781,2.87354 -4.06627,3.3762 -2.46731,1.0614 -6.39078,1.57093 -10.24449,1.33041 -5.29056,-0.33019 -9.18322,-1.51006 -26.10555,-7.91259 -12.58323,-4.76085 -18.74557,-6.07819 -28.43285,-6.07819 -4.93296,0 -13.96801,0.97515 -15.01174,1.62021 -0.16492,0.10192 -0.29986,1.67903 -0.29986,3.50468 0,3.3189 2.9e-4,3.31996 2.06447,7.65209 1.13546,2.38301 2.26807,4.95545 2.5169,5.71655 0.24884,0.76109 1.06896,2.52681 1.8225,3.92381 1.31174,2.43189 1.45614,2.5704 3.39212,3.25384 3.76066,1.32758 8.64281,2.68308 16.83874,4.67518 1.74625,0.42445 4.33199,1.31078 5.7461,1.96962 1.4141,0.65885 2.63879,1.19791 2.72153,1.19791 0.16756,0 2.17539,1.3972 4.27074,2.97192 0.755,0.56741 3.52418,3.19552 6.15372,5.84025 6.58819,6.62623 12.42589,10.41393 17.47556,11.33875 3.76985,0.69042 10.45386,2.46407 18.3129,4.85946 4.31512,1.31522 14.1746,6.18768 16.58055,8.19395 0.97014,0.80898 2.44042,1.77344 3.2673,2.14326 0.82687,0.36981 2.66463,1.50553 4.08392,2.52382 3.84943,2.76183 9.93313,6.34736 13.00197,7.66291 1.49286,0.63996 2.64223,1.28016 2.55416,1.42267 -0.18064,0.29228 -182.290979,0.44594 -182.582861,0.15405 z M 267.00121,211.9631 c 0.0941,-0.15229 -0.35,-0.54521 -0.98693,-0.87316 -0.63694,-0.32794 -1.79306,-1.09842 -2.56918,-1.71218 -0.77611,-0.61375 -2.08109,-1.40605 -2.89996,-1.76068 -0.81886,-0.35462 -1.76083,-0.9453 -2.09326,-1.31264 -0.33243,-0.36733 -1.48808,-1.16536 -2.5681,-1.7734 -1.08002,-0.60804 -3.5894,-2.19146 -5.5764,-3.5187 -4.88007,-3.25971 -12.27474,-6.62593 -17.37755,-7.91066 -1.06715,-0.26868 -2.73403,-0.7512 -3.70417,-1.07226 -0.97014,-0.32107 -3.51014,-1.019 -5.64444,-1.55097 -11.2972,-2.81579 -12.99622,-3.47432 -16.80956,-6.51535 -1.21652,-0.97014 -4.19388,-3.72293 -6.61636,-6.11731 -7.77214,-7.68202 -11.32614,-9.86254 -19.69349,-12.08275 -5.37065,-1.42506 -12.34642,-3.26502 -17.08885,-4.50742 -3.25606,-0.85301 -4.99864,-1.70588 -7.10431,-3.47707 -3.41498,-2.87251 -7.66379,-5.71667 -11.70965,-7.83844 -2.32833,-1.22105 -4.64171,-2.50958 -5.14085,-2.8634 -0.49914,-0.35382 -1.7213,-1.00975 -2.71592,-1.45762 -2.59499,-1.16852 -8.12729,-5.52913 -12.31625,-9.7078 -3.6308,-3.62187 -4.43929,-4.79206 -5.77212,-8.35437 -0.46836,-1.25178 -1.4107,-2.65835 -2.6698,-3.98506 -1.07028,-1.12773 -2.25642,-2.64573 -2.63587,-3.37334 -0.37945,-0.7276 -0.86564,-1.32291 -1.08042,-1.32291 -0.21478,0 -2.0456,-1.6773 -4.06848,-3.72733 -3.31305,-3.35751 -4.7384,-4.30607 -4.40479,-2.93135 0.0647,0.26678 0.0132,1.32231 -0.11464,2.3456 -0.20154,1.6138 -0.48267,2.13091 -2.11995,3.89937 -3.51871,3.80063 -4.731532,8.17236 -3.518301,12.68204 0.555688,2.06553 0.932324,2.67763 2.915531,4.73827 1.52967,1.58938 2.20731,2.54902 2.06389,2.92275 -0.19296,0.50285 -0.31435,0.50429 -1.26067,0.0149 -1.4579,-0.75391 -1.59702,-0.68242 -0.75502,0.38801 0.40214,0.51124 0.73116,1.34904 0.73116,1.86178 0,1.66445 0.89986,2.50037 2.69162,2.50037 2.1129,0 11.0295,1.37536 12.03686,1.85665 0.43656,0.20858 0.79375,0.69056 0.79375,1.07106 0,0.75585 -0.13076,0.7537 -5.29167,-0.0871 -2.72519,-0.44398 -7.1193,-0.17724 -10.0435,0.60968 -2.641024,0.71072 -4.586702,2.5509 -6.141331,5.80833 -0.605701,1.26914 -1.10128,2.40389 -1.10128,2.52168 0,0.11778 1.40879,0.21414 3.130645,0.21414 3.747666,0 5.266786,0.47728 8.863796,2.78482 6.37961,4.09262 9.68458,5.70325 12.76236,6.21957 5.26399,0.88308 7.79071,1.74551 7.61336,2.59865 -0.14244,0.68522 0.25655,0.72088 -7.26337,-0.64909 -5.78977,-1.05479 -6.27622,-1.20699 -9.17222,-2.8699 -5.67344,-3.25775 -10.25621,-4.06412 -16.992904,-2.99001 -3.973717,0.63357 -4.570518,0.88973 -3.719117,1.59633 0.819866,0.68043 0.659662,1.31538 -0.505559,2.00369 -0.577324,0.34103 -1.796242,1.70284 -2.708705,3.02624 -2.077607,3.01326 -1.877099,3.38153 1.478019,2.71463 2.077317,-0.4129 2.871808,-0.39122 6.641499,0.1812 2.355056,0.35762 6.028167,0.9078 8.162477,1.22263 3.77704,0.55714 3.88347,0.59756 3.98989,1.51532 0.17584,1.51644 -0.75337,1.76173 -5.67347,1.49769 l -4.313646,-0.2315 -2.095912,1.2732 c -1.152754,0.70026 -2.502129,1.27563 -2.998611,1.2786 -1.556336,0.009 -1.902753,0.48892 -2.00322,2.77339 -0.05154,1.17195 -0.261571,2.44447 -0.466732,2.82782 -0.620575,1.15956 -0.422843,2.68818 0.529191,4.09108 1.052276,1.55062 0.950888,2.11665 -0.430922,2.40573 -0.550252,0.11512 -1.741265,0.89176 -2.64669,1.72586 -2.733445,2.51812 -6.71286,5.31465 -8.563045,6.01766 -0.959633,0.36464 -2.150752,0.94381 -2.646923,1.28707 -1.164163,0.80536 -7.43416,3.91321 -7.894803,3.91321 -0.193615,0 -1.810304,0.7189 -3.592643,1.59755 -2.618986,1.29111 -3.893925,2.22486 -6.6464,4.86774 -1.873182,1.7986 -3.405787,3.46563 -3.405787,3.70451 0,0.34313 22.339472,0.41938 106.379283,0.36308 58.5086,-0.0392 106.45629,-0.19586 106.55042,-0.34816 z M 115.45484,182.02282 c -0.29105,-0.18808 -0.88636,-0.3444 -1.32292,-0.34737 -0.43656,-0.003 -0.79375,-0.21586 -0.79375,-0.47308 0,-1.2285 -2.4095,-2.52572 -6.69453,-3.60416 -2.78737,-0.70151 -3.73035,-1.16662 -3.27943,-1.61753 0.42716,-0.42717 4.8199,0.2403 7.38135,1.12157 1.63915,0.56395 5.80123,3.34875 6.53808,4.37456 0.5829,0.81148 -0.78573,1.2201 -1.8288,0.54601 z m -125.2361061,8.87893 c 3.2373497,-1.44746 7.0924098,-3.93383 9.3486105,-6.02952 1.9943126,-1.85243 5.7707879,-6.16913 7.2502037,-8.28734 0.7439378,-1.06517 1.8188445,-2.0751 2.6458332,-2.48591 4.7750907,-2.37204 11.9056497,-7.10442 11.6880877,-7.75711 -0.06738,-0.20213 -1.141366,-0.64946 -2.386647,-0.99407 -5.352676,-1.48126 -6.035382,-1.68798 -7.247713,-2.19452 -2.3044821,-0.96287 -2.2258092,-1.03836 -3.6720322,3.52371 -1.0116466,3.19121 -1.8372524,4.81392 -3.7534812,7.37735 -0.8575039,1.14713 -1.9439994,2.89929 -2.4144321,3.8937 -1.09646148,2.31774 -3.1361237,4.70148 -4.1455972,4.84495 -0.5073579,0.0721 -0.7518259,0.32142 -0.6888938,0.70254 0.11926,0.72223 -0.1377915,0.8942 -3.348503,2.24025 -2.1495277,0.90116 -2.9359434,1.49097 -5.0565365,3.79236 -2.931283,3.18121 -2.68557,3.3707 1.7811009,1.37361 z M 47.410795,156.12448 c 2.321345,-1.82236 3.851899,-3.73499 2.988878,-3.73499 -0.299685,0 -1.304861,0.75406 -2.233725,1.6757 -3.862793,3.8327 -4.205869,4.76826 -0.755153,2.05929 z m 99.578545,-6.84672 c 0.25481,-0.41228 -0.826,-2.06422 -2.72796,-4.16949 l -1.63806,-1.81316 5.20118,-1.71462 c 4.50334,-1.48456 5.21629,-1.8211 5.3139,-2.50836 0.0941,-0.66261 -0.0516,-0.7933 -0.88195,-0.79105 -1.17011,0.003 -4.36782,0.98417 -7.34467,2.25321 -1.16417,0.49629 -2.64779,0.90611 -3.29693,0.91072 -1.40942,0.01 -3.22946,1.20603 -3.22946,2.12223 0,0.76176 0.83629,1.45122 4.93889,4.07175 3.13736,2.004 3.37396,2.10978 3.66506,1.63877 z m 88.3383,-4.78873 c 0.55363,-0.28629 1.58442,-1.16011 2.29064,-1.94181 4.69466,-5.19642 6.32543,-17.41409 4.12128,-30.87637 -0.93659,-5.72038 -4.36312,-19.80586 -5.78874,-23.795847 -0.30335,-0.849012 -0.55155,-1.803862 -0.55155,-2.121891 0,-0.318026 -0.34133,-1.210878 -0.75851,-1.984117 -0.41718,-0.773236 -0.87923,-1.882137 -1.02678,-2.46422 -0.45305,-1.78731 -1.7425,-5.139185 -2.70271,-7.025587 -0.5022,-0.98662 -1.43114,-3.109129 -2.0643,-4.716684 -1.09437,-2.778513 -5.5232,-10.763189 -8.23782,-14.851838 -0.69369,-1.044815 -1.42001,-2.15133 -1.61404,-2.458928 -3.52929,-5.59503 -4.78784,-7.137096 -10.187,-12.481866 -5.11277,-5.061267 -6.87751,-6.422029 -10.97967,-8.466228 -3.53761,-1.76287 -5.00174,-2.169912 -7.4984,-2.084621 -1.79334,0.06126 -2.59179,0.301061 -4.26219,1.280054 -3.918,2.296277 -5.41098,4.53801 -6.25957,9.398843 -1.46807,8.409343 -0.66644,20.401596 2.13118,31.881856 1.00347,4.117837 1.15956,4.683583 2.2873,8.290277 0.39434,1.26118 1.02301,3.32493 1.39703,4.586111 0.81292,2.741129 3.0729,8.465717 4.79023,12.133787 0.68245,1.457639 1.24081,2.835109 1.24081,3.061045 0,0.711084 6.61867,13.992414 8.2107,16.475964 0.83637,1.30474 1.70452,2.79907 1.92922,3.32073 1.03535,2.40366 8.89301,12.21915 13.25896,16.56259 5.00021,4.97442 7.17137,6.4437 12.05529,8.15809 2.3116,0.81144 3.21934,0.95906 5.01713,0.81593 1.20721,-0.0961 2.64789,-0.40898 3.20151,-0.69527 z M 56.923437,142.86324 c 1.353425,-1.16486 3.487917,-2.58366 4.743312,-3.15288 1.255395,-0.56922 2.278514,-1.16397 2.273603,-1.32166 -0.009,-0.2898 -5.591975,-2.57976 -6.289487,-2.57976 -0.345141,0 -0.612645,0.74715 -1.326212,3.70416 -0.205214,0.85041 -1.050308,2.86411 -2.183751,5.20348 -0.317538,0.65539 0.501643,0.10976 2.782535,-1.85334 z"
         id="path3925"
         inkscape:connector-curvature="0" />
      <path
         style="fill:#50656f;stroke-width:0.35277775"
         d="m 93.186259,214.66998 c -0.103215,-0.10321 -33.227117,-0.19094 -73.608665,-0.19494 -42.356678,-0.004 -73.50287,-0.13975 -73.614508,-0.32038 -0.204501,-0.33089 1.617128,-1.08739 2.6184,-1.08739 0.324938,0 1.849061,-0.5275 3.38694,-1.17222 4.292283,-1.79945 6.655911,-2.70854 7.036294,-2.70629 0.190279,0.001 2.012835,-0.80509 4.050127,-1.7916 3.482604,-1.68635 3.841323,-1.9626 5.997222,-4.61838 1.26118,-1.5536 2.586355,-3.16832 2.94483,-3.58826 0.358478,-0.41994 0.965556,-1.39853 1.349064,-2.17464 1.056344,-2.13775 10.526327,-11.21733 12.844391,-12.31488 1.623416,-0.76865 6.2257267,-4.5292 8.4381018,-6.89478 0.3880556,-0.41493 1.7559901,-1.81875 3.0398507,-3.1196 1.283864,-1.30085 2.90438041,-3.25994 3.6011518,-4.35354 0.6967678,-1.09359 1.9657552,-2.60172 2.8199713,-3.35139 0.854216,-0.74966 2.2152679,-2.27584 3.0245612,-3.3915 1.0521138,-1.45041 1.6944727,-2.0221 2.2540629,-2.00611 l 0.7826233,0.0224 -0.7739944,0.31175 c -0.5127519,0.20651 -0.9075666,0.82409 -1.169744,1.82972 -1.3080964,5.01748 -2.6128026,7.88843 -4.5303472,9.96885 -0.7233567,0.7848 -1.6931745,2.22065 -2.1551511,3.19079 -1.60139929,3.3629 -2.7292121,4.70389 -4.3444227,5.1656 -1.8651395,0.53316 -2.3721729,0.91282 -2.3721729,1.77628 0,0.488 -0.5767599,0.94411 -2.0284721,1.60413 -1.3887978,0.63143 -2.9462696,1.83261 -4.9388886,3.80905 -1.600729,1.58774 -2.910416,2.98957 -2.910416,3.11518 0,0.12561 0.688759,0.22837 1.530579,0.22837 2.40237,0 9.3517324,-3.69718 13.02096674,-6.92739 1.72904486,-1.52216 6.17182206,-6.571 7.69395576,-8.74353 0.9670909,-1.38032 1.8173735,-2.0785 3.7041665,-3.04151 4.420002,-2.25597 11.382847,-7.0838 11.191359,-7.75976 -0.04237,-0.14955 0.910135,-0.2473 2.116667,-0.21722 1.884196,0.047 2.390909,-0.0846 3.591566,-0.9329 0.76883,-0.54318 1.655975,-1.38106 1.971435,-1.86195 0.315458,-0.48088 1.512038,-1.56425 2.65907,-2.40747 1.147028,-0.84323 2.551772,-2.02942 3.121649,-2.63598 0.569877,-0.60656 1.391243,-1.10284 1.825251,-1.10284 0.445576,0 1.112516,-0.42235 1.53198,-0.97014 2.467909,-3.22293 3.245731,-4.31022 4.10102,-5.73264 0.525004,-0.87312 1.491911,-2.25447 2.148681,-3.06966 0.656773,-0.8152 1.47387,-2.10698 1.815768,-2.87064 0.341898,-0.76366 1.121209,-1.80883 1.7318,-2.32261 1.032175,-0.86852 2.007814,-2.17329 5.476117,-7.32353 l 1.349882,-2.0045 1.062659,0.59339 c 1.01534,0.56696 1.085871,0.56231 1.58381,-0.10438 0.650681,-0.87119 1.675232,-0.36909 1.857251,0.91019 0.0662,0.46525 0.368614,1.12372 0.672035,1.46327 0.682251,0.76348 0.221481,0.78388 -1.49605,0.0663 -0.725441,-0.30311 -1.517403,-0.47497 -1.759909,-0.38191 -0.24251,0.0931 -0.72631,1.25387 -1.075108,2.57958 -0.348798,1.32571 -1.163726,3.54607 -1.810949,4.93415 -0.647224,1.38807 -1.176768,2.61839 -1.176768,2.73403 0,0.70197 1.355196,-0.0725 3.432552,-1.96166 1.466113,-1.33329 3.344129,-2.60945 4.863786,-3.30505 1.361524,-0.62323 2.949024,-1.5231 3.527777,-1.99972 0.57875,-0.47662 1.925398,-1.36068 2.992551,-1.96457 1.879462,-1.06357 3.566815,-2.32186 8.67709,-6.47067 3.105193,-2.52097 10.025623,-9.66949 15.586251,-16.09995 4.88993,-5.65485 6.191376,-6.79369 7.763721,-6.79369 0.60082,0 1.19052,-0.15875 1.31044,-0.35278 0.4156,-0.67245 1.22241,-0.34827 1.45672,0.58532 0.13819,0.5506 1.78003,2.40851 3.97481,4.49792 2.05665,1.9579 4.91222,4.79013 6.34572,6.29385 1.43351,1.50371 2.86795,2.73402 3.18766,2.73402 1.48143,0 15.86574,-13.63847 23.25436,-22.048605 2.04553,-2.328333 3.92275,-4.392083 4.17161,-4.586111 0.24886,-0.194028 1.0521,-1.157122 1.78496,-2.140207 1.63807,-2.197344 3.42048,-4.325825 6.5763,-7.853136 1.33188,-1.488663 2.59161,-3.103531 2.79941,-3.5886 0.20779,-0.48507 0.88413,-1.43757 1.50299,-2.116667 2.28417,-2.506549 3.55592,-4.853894 4.88816,-9.022383 2.12981,-6.664088 5.82759,-14.941104 8.47725,-18.975284 0.83162,-1.266168 1.94651,-3.144357 2.47752,-4.173756 0.53101,-1.029394 1.40914,-2.34788 1.95141,-2.929963 0.54226,-0.582084 1.55383,-2.19746 2.24793,-3.589726 0.6941,-1.392262 1.43124,-2.635983 1.63809,-2.763819 0.20684,-0.12784 0.84648,-1.211213 1.42142,-2.4075 1.47701,-3.07328 4.08272,-5.230365 7.69759,-6.372303 l 2.74883,-0.868355 3.0343,0.676109 c 4.00578,0.892577 6.55074,1.918017 7.84628,3.161517 0.58209,0.558701 1.61396,1.251264 2.29306,1.539028 0.67909,0.287768 1.98921,1.307514 2.91135,2.266107 0.92215,0.958589 2.20811,2.10706 2.85768,2.552156 0.64957,0.445093 1.6068,1.482235 2.12716,2.304761 0.52037,0.822526 1.65887,2.079536 2.53,2.793361 0.87112,0.713825 1.79559,1.804585 2.05436,2.423911 0.25877,0.61933 1.27982,2.050909 2.26899,3.18129 0.98916,1.130381 2.28562,3.031088 2.881,4.223794 0.59538,1.192706 1.71152,3.041682 2.48032,4.108834 1.48802,2.065493 6.81054,12.288661 8.54055,16.404166 2.52399,6.004284 3.58175,8.758 5.01384,13.052777 1.4671,4.399763 2.00588,6.198982 4.43691,14.816664 2.08947,7.40692 3.51446,20.93715 2.84454,27.00885 -1.10121,9.98056 -1.70146,11.81219 -5.1165,15.61282 -1.65424,1.84101 -2.89781,2.87354 -4.06627,3.3762 -2.46731,1.0614 -6.39078,1.57093 -10.24449,1.33041 -5.29056,-0.33019 -9.18322,-1.51006 -26.10555,-7.91259 -12.58323,-4.76085 -18.74557,-6.07819 -28.43285,-6.07819 -4.93296,0 -13.96801,0.97515 -15.01174,1.62021 -0.16492,0.10192 -0.29986,1.67903 -0.29986,3.50468 0,3.3189 2.9e-4,3.31996 2.06447,7.65209 1.13546,2.38301 2.26807,4.95545 2.5169,5.71655 0.24884,0.76109 1.06896,2.52681 1.8225,3.92381 1.31174,2.43189 1.45614,2.5704 3.39212,3.25384 3.76066,1.32758 8.64281,2.68308 16.83874,4.67518 1.74625,0.42445 4.33199,1.31078 5.7461,1.96962 1.4141,0.65885 2.63879,1.19791 2.72153,1.19791 0.16756,0 2.17539,1.3972 4.27074,2.97192 0.755,0.56741 3.52418,3.19552 6.15372,5.84025 6.58819,6.62623 12.42589,10.41393 17.47556,11.33875 3.76985,0.69042 10.45386,2.46407 18.3129,4.85946 4.31512,1.31522 14.1746,6.18768 16.58055,8.19395 0.97014,0.80898 2.44042,1.77344 3.2673,2.14326 0.82687,0.36981 2.66463,1.50553 4.08392,2.52382 3.84943,2.76183 9.93313,6.34736 13.00197,7.66291 1.49286,0.63996 2.64223,1.28016 2.55416,1.42267 -0.18064,0.29228 -182.290979,0.44594 -182.582861,0.15405 z m 147.416481,-1.95537 c 24.1339,-1.1e-4 27.60486,-0.0658 27.60486,-0.52212 0,-0.2871 -0.67468,-0.86186 -1.4993,-1.27726 -0.82462,-0.41539 -2.14222,-1.27634 -2.92801,-1.91321 -0.78579,-0.63688 -2.02585,-1.40746 -2.75569,-1.7124 -0.72984,-0.30495 -1.9383,-1.07442 -2.68548,-1.70993 -0.74718,-0.63551 -1.96774,-1.46952 -2.71237,-1.85334 -0.74463,-0.38383 -2.94137,-1.75498 -4.88164,-3.047 -5.302,-3.53058 -12.19263,-6.65345 -18.27722,-8.28333 -1.70928,-0.45786 -3.24453,-0.917 -3.41168,-1.0203 -0.16715,-0.1033 -2.7374,-0.81004 -5.71167,-1.57052 -9.72807,-2.48734 -11.03345,-2.8798 -12.58522,-3.78368 -2.61616,-1.52386 -6.00787,-4.35872 -10.42041,-8.70959 -2.33254,-2.29995 -4.80412,-4.59676 -5.4924,-5.10403 -0.68827,-0.50726 -1.73145,-1.32755 -2.31817,-1.82288 -2.20215,-1.85909 -6.64656,-3.81778 -11.63704,-5.12854 -2.71429,-0.71291 -6.91945,-1.81992 -9.3448,-2.46002 -2.42535,-0.64009 -5.96421,-1.57386 -7.86413,-2.07504 -3.51927,-0.92834 -5.9649,-2.10215 -7.16529,-3.43908 -0.36806,-0.40992 -1.62169,-1.38325 -2.78586,-2.16297 -1.16416,-0.77972 -2.5184,-1.78863 -3.00942,-2.24203 -0.49102,-0.4534 -2.94911,-1.88015 -5.46242,-3.17056 -2.51331,-1.29042 -5.06258,-2.72218 -5.66503,-3.18169 -0.60246,-0.45952 -1.63687,-1.01845 -2.2987,-1.24208 -2.2572,-0.7627 -8.7968,-5.93983 -13.51846,-10.702 -2.69299,-2.71609 -3.05719,-3.29527 -4.99566,-7.94429 -0.36406,-0.87313 -1.55903,-2.54 -2.65549,-3.70417 -1.09646,-1.16417 -2.25573,-2.6326 -2.57616,-3.26319 -0.32044,-0.63059 -0.75666,-1.14653 -0.96938,-1.14653 -0.21273,0 -2.11879,-1.7569 -4.23569,-3.90423 -2.47841,-2.51403 -4.06467,-3.86293 -4.45486,-3.78826 -0.47815,0.0915 -0.65317,0.64338 -0.82984,2.61665 -0.25892,2.89197 -0.56746,3.59168 -2.18716,4.95999 -1.243618,1.05061 -1.857758,2.02654 -3.029971,4.81497 -1.189207,2.82886 -1.285364,4.82055 -0.385336,7.98146 0.699544,2.45681 1.027836,3.02254 2.780607,4.79164 1.94965,1.96781 1.96627,2.00148 0.87448,1.7712 -1.448254,-0.30545 -1.819581,0.30356 -0.92422,1.51581 0.38046,0.51513 0.80194,1.52503 0.9366,2.24423 0.34563,1.84584 1.61521,2.7474 3.88216,2.75679 2.16483,0.009 11.01328,1.491 11.40547,1.91031 0.15225,0.16278 -0.43756,0.15939 -1.31068,-0.008 -0.87313,-0.16692 -3.96875,-0.29608 -6.87917,-0.28704 -4.60406,0.0143 -5.54378,0.11727 -7.23194,0.7923 -1.067154,0.42671 -2.263826,1.04997 -2.659275,1.38502 -2.034029,1.72337 -4.856798,7.33154 -3.972525,7.89246 0.252003,0.15985 1.966313,0.29656 3.809577,0.30379 3.780333,0.0148 4.946653,0.40656 8.819443,2.9621 1.26118,0.83221 3.88506,2.40737 5.83085,3.50035 2.95704,1.66101 3.98598,2.04956 6.268,2.36696 1.50162,0.20886 3.24336,0.61049 3.87054,0.89251 l 1.14033,0.51277 -1.23472,-0.17388 c -0.6791,-0.0956 -2.18722,-0.34361 -3.35139,-0.55105 -1.16417,-0.20744 -2.92671,-0.5154 -3.91676,-0.68435 -1.09016,-0.18603 -3.1804,-1.07816 -5.29992,-2.26204 -2.46362,-1.37608 -4.4374,-2.1818 -6.66657,-2.72137 -2.9299,-0.70918 -3.47389,-0.73683 -7.273339,-0.36969 -7.221163,0.69777 -8.912372,1.35098 -7.094103,2.74002 0.570699,0.43598 0.520577,0.5589 -0.663208,1.62639 -1.879674,1.69502 -4.259287,5.31968 -3.976391,6.05689 0.207282,0.54016 0.626121,0.58224 3.80328,0.38202 2.550435,-0.16071 4.578099,-0.0622 7.098124,0.34476 1.940278,0.31336 5.087037,0.79995 6.992797,1.0813 3.99065,0.58914 4.32993,0.72531 3.69967,1.48472 -0.38391,0.46259 -1.13429,0.51526 -4.84378,0.33998 l -4.389499,-0.2074 -2.140705,1.17655 c -1.177388,0.6471 -2.720064,1.27793 -3.428174,1.40183 -1.694265,0.29647 -2.180361,0.95451 -2.150777,2.91155 0.01344,0.88914 -0.19964,2.25172 -0.473519,3.02797 -0.702592,1.99136 -0.626255,2.79903 0.408711,4.32413 0.91126,1.34282 0.771965,1.91691 -0.468761,1.93201 -0.244221,0.003 -1.37003,0.83884 -2.501801,1.85748 -2.845209,2.56082 -6.639154,5.26906 -8.334703,5.94957 -0.7807,0.31333 -3.236654,1.54364 -5.457672,2.73402 -2.221019,1.19038 -4.216915,2.16433 -4.435327,2.16433 -1.145304,0 -7.116321,3.37809 -9.462977,5.35366 -3.142728,2.64576 -5.819087,5.84555 -5.111969,6.11175 0.786751,0.29618 45.023914,0.42234 103.834593,0.29613 30.65639,-0.0658 68.16107,-0.11968 83.34374,-0.11975 z M 46.947115,157.01946 c 1.796528,-1.22258 5.007726,-4.54318 5.007726,-5.17833 0,-0.13496 -0.498764,-0.14564 -1.108364,-0.0237 -2.18283,0.43656 -7.861956,6.56929 -6.083402,6.56929 0.09621,0 1.079027,-0.61526 2.18404,-1.36725 z m 100.042225,-7.7417 c 0.25481,-0.41228 -0.826,-2.06422 -2.72796,-4.16949 l -1.63806,-1.81316 5.20118,-1.71462 c 4.50334,-1.48456 5.21629,-1.8211 5.3139,-2.50836 0.0941,-0.66261 -0.0516,-0.7933 -0.88195,-0.79105 -1.17011,0.003 -4.36782,0.98417 -7.34467,2.25321 -1.16417,0.49629 -2.64779,0.90611 -3.29693,0.91072 -1.40942,0.01 -3.22946,1.20603 -3.22946,2.12223 0,0.76176 0.83629,1.45122 4.93889,4.07175 3.13736,2.004 3.37396,2.10978 3.66506,1.63877 z m 88.02817,-4.15744 c 3.04663,-1.26905 5.48429,-4.83256 6.85221,-10.01694 1.87051,-7.0892 2.04278,-14.18803 0.56075,-23.10694 -0.98214,-5.91053 -4.35671,-19.801733 -5.77409,-23.768659 -0.30335,-0.849013 -0.55155,-1.781662 -0.55155,-2.072552 0,-0.290893 -0.37567,-1.421871 -0.83482,-2.513284 -0.45915,-1.091417 -1.18899,-2.936892 -1.62186,-4.101059 -3.75436,-10.097057 -8.60538,-19.32798 -15.48016,-29.456942 -3.42587,-5.047502 -4.8275,-6.777521 -8.05279,-9.939482 -5.71268,-5.600519 -7.45591,-6.936263 -12.01523,-9.2066 -3.95325,-1.968549 -4.64611,-2.199301 -6.95348,-2.31582 -2.80975,-0.141883 -3.52222,0.101494 -6.79775,2.322093 -3.93003,2.664308 -5.42892,6.668156 -5.9489,15.8908 -0.45137,8.005652 1.45695,20.72745 4.7208,31.471229 0.38313,1.261181 1.12409,3.721805 1.64656,5.468055 1.0167,3.3981 4.92916,13.30108 5.71054,14.45419 0.25935,0.382718 0.47154,0.921593 0.47154,1.197494 0,0.604187 3.07172,7.411577 3.68243,8.160817 0.23723,0.29104 0.70468,1.27065 1.03878,2.1769 0.3341,0.90626 1.47992,3.04938 2.54628,4.7625 1.06635,1.71312 2.26336,3.80592 2.66002,4.65066 0.90431,1.92584 7.7636,11.05007 10.77965,14.3391 6.00223,6.54548 10.3883,9.72979 16.04895,11.65162 2.81316,0.95509 4.93889,0.94137 7.31212,-0.0472 z M 16.853454,164.22029 c -1.362449,-0.62386 -0.728733,-0.63301 0.881945,-0.0127 0.679097,0.26152 0.996597,0.48041 0.705555,0.48642 -0.291041,0.006 -1.005416,-0.20715 -1.5875,-0.47368 z m -3.854047,-1.09882 c -0.761531,-0.27896 -1.464328,-0.58693 -1.561776,-0.68438 -0.296446,-0.29644 2.170705,0.2513 3.299157,0.73247 1.520828,0.64847 0.05327,0.60785 -1.737381,-0.0481 z"
         id="path3923"
         inkscape:connector-curvature="0" />
      <path
         style="fill:#44220a;stroke-width:0.35277775"
         d="m -49.99793,213.30903 c 0,-0.38624 2.447358,-1.48213 7.231944,-3.23837 9.29157,-3.41059 12.00025,-5.5198 16.249257,-12.65309 1.962157,-3.29409 10.694433,-11.60237 13.369018,-12.71989 2.373824,-0.99185 12.79616959,-11.04076 15.3608886,-14.81051 1.1531916,-1.69502 4.8996208,-5.50323 5.4139461,-5.50323 0.4562686,0 0.2137233,1.26396 -0.7093655,3.69668 -1.1099588,2.9252 -1.6001082,3.76706 -3.2906968,5.65193 -0.6961152,0.77611 -1.6436445,2.20486 -2.1056211,3.175 -1.60139929,3.3629 -2.7292121,4.70389 -4.3444227,5.1656 -1.8651395,0.53315 -2.3721729,0.91282 -2.3721729,1.77628 0,0.48799 -0.5767599,0.9441 -2.0284721,1.60413 -1.3887978,0.63142 -2.9462696,1.8326 -4.9388886,3.80905 -1.600729,1.58774 -2.910416,2.98956 -2.910416,3.11517 0,0.12561 0.688759,0.22838 1.530579,0.22838 2.40237,0 9.3517324,-3.69719 13.02096674,-6.92739 1.72904486,-1.52216 6.17182206,-6.57101 7.69395576,-8.74354 0.9670909,-1.38032 1.8173735,-2.07849 3.7041665,-3.04151 3.267957,-1.66796 5.827278,-3.287 8.746814,-5.53326 1.329524,-1.02292 2.678899,-1.87397 2.998611,-1.89121 0.319712,-0.0172 1.295668,-0.0122 2.168793,0.0111 1.968129,0.0526 3.507807,-0.84271 4.795484,-2.78852 0.518742,-0.78387 1.517283,-1.77035 2.218979,-2.19218 0.7017,-0.42184 2.099748,-1.53293 3.10678,-2.46911 1.007032,-0.93618 2.066413,-1.70214 2.354181,-1.70214 0.62725,0 2.694019,-1.67682 2.694019,-2.18571 0,-0.19751 0.595313,-1.12147 1.322917,-2.05324 2.086663,-2.67218 4.784259,-6.60717 5.569052,-8.12357 0.395097,-0.76342 1.296797,-1.98509 2.003777,-2.71484 0.706985,-0.72974 2.414432,-2.9143 3.79433,-4.85458 1.379897,-1.94028 2.661009,-3.5119 2.846913,-3.4925 0.185906,0.0194 0.695198,0.0626 1.13176,0.096 0.436563,0.0334 1.190625,0.36851 1.675694,0.74465 l 0.881945,0.6839 -1.049129,-0.0744 c -1.020128,-0.0723 -1.070942,0.001 -1.837969,2.66783 -0.433857,1.50821 -1.271436,3.75341 -1.861284,4.98932 -0.589848,1.23592 -1.072451,2.34349 -1.072451,2.46127 0,0.70335 1.348708,-0.0617 3.423757,-1.94224 1.352116,-1.22534 3.525654,-2.72107 5.034114,-3.46426 5.949382,-2.93111 9.126548,-4.96558 13.720293,-8.78566 6.143864,-5.10913 9.473881,-8.36618 14.515636,-14.19756 6.149238,-7.1123 7.290834,-8.28003 8.960919,-9.16601 1.473149,-0.7815 1.576959,-0.79061 2.454879,-0.21537 1.44717,0.94822 2.08368,2.15992 1.80386,3.43392 -0.19894,0.9058 -0.57466,1.25603 -2.05965,1.91991 -4.974043,2.22372 -9.083999,10.03638 -10.457828,19.8794 -0.419675,3.00683 -0.0418,4.98271 1.188134,6.21264 0.433321,0.43333 2.172448,1.22875 3.86473,1.7676 3.813919,1.21443 5.885394,2.70956 4.382404,3.16309 -4.631659,1.39761 -5.844848,2.06545 -8.735939,4.80897 -1.621063,1.53831 -3.072843,2.79694 -3.226177,2.79694 -0.153335,0 -0.537909,0.51593 -0.854601,1.14652 -0.316696,0.63059 -1.339681,1.94028 -2.273303,2.91042 -0.933623,0.97014 -2.049276,2.44872 -2.479227,3.28573 l -0.781731,1.52183 1.096903,1.13172 1.096902,1.13172 -1.063357,1.57978 c -3.530088,5.24448 -5.880805,11.0117 -5.445604,13.36016 0.35536,1.91762 1.433216,3.40789 3.223715,4.4572 0.885937,0.51919 1.904939,1.23813 2.264455,1.59765 0.604711,0.60471 0.614952,0.76713 0.136748,2.16893 -0.749113,2.19595 -2.888513,4.8341 -4.929131,6.07824 -0.975604,0.59482 -2.305512,1.58357 -2.955353,2.19724 -0.649842,0.61367 -1.915372,1.38766 -2.812292,1.71998 -0.896916,0.33232 -3.297632,1.5064 -5.334924,2.60907 -2.037291,1.10267 -4.259791,2.21278 -4.938888,2.46692 -3.128271,1.17069 -4.472781,1.98333 -6.822778,4.12377 -3.945111,3.59331 -4.400959,4.07091 -5.768961,6.04436 l -1.283871,1.85209 -14.493444,1.9e-4 c -7.971394,1.1e-4 -30.0906298,0.10568 -49.153858,0.23459 -19.063228,0.12892 -34.660414,0.13206 -34.660414,0.007 z m 96.945045,-56.28957 c 1.796528,-1.22258 5.007726,-4.54318 5.007726,-5.17833 0,-0.13496 -0.498764,-0.14564 -1.108364,-0.0237 -2.18283,0.43656 -7.861956,6.56929 -6.083402,6.56929 0.09621,0 1.079027,-0.61526 2.18404,-1.36725 z m 11.710503,-23.54677 c 0,-0.46877 0.09578,-0.49288 0.529167,-0.1332 0.291041,0.24155 0.529166,0.49911 0.529166,0.57236 0,0.0733 -0.238125,0.1332 -0.529166,0.1332 -0.291042,0 -0.529167,-0.25756 -0.529167,-0.57236 z"
         id="path3921"
         inkscape:connector-curvature="0" />
      <path
         style="fill:#3d1b00;stroke-width:0.35277775"
         d="m -46.750324,212.20104 c 0.525002,-0.30309 2.650116,-1.11242 4.722474,-1.79849 3.776826,-1.25035 9.265283,-3.84391 9.752039,-4.60831 0.14279,-0.22424 0.80791,-0.51056 1.47804,-0.63628 0.733834,-0.13766 1.577643,-0.65549 2.12163,-1.30198 1.000678,-1.18924 1.110703,-1.729 0.480836,-2.35886 -0.327981,-0.32799 -0.249351,-0.6394 0.351836,-1.39348 0.425816,-0.5341 1.164265,-1.68547 1.640995,-2.5586 0.963161,-1.76402 5.348876,-6.22871 8.247753,-8.39627 1.03439,-0.77344 2.121023,-1.74935 2.414743,-2.1687 0.293719,-0.41934 1.407646,-1.14879 2.475395,-1.621 1.666085,-0.73682 5.5872555,-3.93094 8.3985943,-6.84136 0.3880556,-0.40173 1.828994,-1.88086 3.2020861,-3.28696 1.37309217,-1.40609 3.2293452,-3.58841 4.1250091,-4.84959 0.8956639,-1.26118 2.2103643,-2.75011 2.9215572,-3.30874 1.278262,-1.00404 1.2902317,-1.00606 1.0444444,-0.17639 -0.6525753,2.20285 -2.1052894,4.81859 -3.5103574,6.32072 -0.852371,0.91126 -1.9777567,2.51135 -2.50085204,3.55576 -1.41515385,2.82547 -2.46878456,4.07033 -3.64401426,4.30538 -1.2798954,0.25598 -4.2837062,2.32173 -4.2837062,2.94595 0,0.24975 -0.6179432,0.76934 -1.3732051,1.15464 -0.7552654,0.38531 -1.9062031,1.31918 -2.5576391,2.07528 -0.651439,0.75609 -2.187063,1.89433 -3.4125,2.52944 -2.356502,1.22129 -3.463455,2.43733 -3.094326,3.39926 0.190711,0.49699 0.63531,0.5535 3.051689,0.38788 2.270256,-0.15561 3.365204,-0.44804 5.5481925,-1.48176 3.1885183,-1.50988 7.7739235,-4.53318 9.77528816,-6.44515 2.27491914,-2.1733 7.25343514,-7.86791 7.66148264,-8.76347 0.2065231,-0.45327 1.2659253,-1.28593 2.3542307,-1.85036 4.586862,-2.37887 7.361449,-4.1424 8.776863,-5.57859 2.015141,-2.04472 3.109761,-2.5538 5.394011,-2.50861 2.481128,0.0491 3.9344,-0.72438 5.100845,-2.71477 0.629631,-1.07438 1.508196,-1.89755 2.808461,-2.63137 1.040705,-0.58734 2.314066,-1.62099 2.82969,-2.29701 0.525385,-0.68881 1.500201,-1.41483 2.217571,-1.65159 1.288391,-0.4252 2.510833,-1.54807 2.532606,-2.3263 0.0065,-0.23073 0.607049,-1.13492 1.334654,-2.00931 1.826577,-2.19506 4.698276,-6.33576 5.604576,-8.08124 0.414638,-0.79857 1.14366,-1.77673 1.620051,-2.17371 0.476391,-0.39697 1.747185,-1.9124 2.823982,-3.36761 2.62019,-3.54097 4.036882,-5.15921 4.295532,-4.90663 0.416926,0.40715 -0.961408,5.47379 -2.172328,7.9853 -1.231815,2.55484 -1.306594,3.62411 -0.253443,3.62411 0.910774,0 1.974017,-0.69147 4.160509,-2.70575 1.13078,-1.04172 3.115155,-2.41515 4.409722,-3.05206 3.811496,-1.87523 9.668876,-5.13724 10.449866,-5.81959 0.397835,-0.34759 1.437711,-1.0838 2.310836,-1.63601 0.873125,-0.55222 3.01625,-2.39646 4.7625,-4.09831 1.746249,-1.70185 4.130456,-4.01948 5.298235,-5.1503 1.167779,-1.13082 3.866528,-4.10091 5.997221,-6.6002 4.533988,-5.31835 7.366,-8.14484 8.738492,-8.72144 0.862747,-0.36246 1.090887,-0.31291 1.852087,0.40219 0.49523,0.46525 0.86813,1.21383 0.86813,1.74272 0,0.78896 -0.25494,1.01882 -1.71037,1.5422 -4.768972,1.71489 -9.484196,10.76765 -10.673738,20.49249 -0.658104,5.38018 0.449964,7.2456 5.271043,8.87374 3.077079,1.03917 4.640057,1.87529 3.545889,1.89688 -0.312713,0.006 -1.662088,0.5037 -2.998611,1.10561 -1.747675,0.78708 -3.042197,1.72131 -4.610022,3.32695 -1.198986,1.22791 -2.597192,2.50593 -3.107125,2.84005 -0.509934,0.33413 -1.221733,1.18492 -1.581775,1.89066 -0.360041,0.70574 -1.364382,1.97101 -2.231866,2.81171 -1.512168,1.46548 -3.070091,3.99711 -3.070091,4.98891 0,0.25917 0.413728,0.90306 0.919396,1.43086 l 0.919395,0.95964 -1.042187,1.52911 c -2.693274,3.9516 -5.366208,10.03877 -5.378164,12.2479 -0.01425,2.63263 1.585077,5.01675 4.512254,6.72643 0.893004,0.52157 1.480417,1.12344 1.480417,1.51682 0,1.65663 -2.943157,5.65501 -4.704319,6.39099 -0.614084,0.25662 -1.814029,1.11706 -2.666545,1.91208 -0.852519,0.79503 -2.431898,1.80343 -3.509729,2.24089 -1.077835,0.43746 -3.634694,1.68831 -5.681913,2.77968 -2.047219,1.09136 -4.733586,2.35664 -5.969705,2.81173 -2.931939,1.07942 -8.609961,6.005 -11.075817,9.60807 l -1.14058,1.6666 -19.931943,0.009 c -10.962569,0.005 -32.4731927,0.0971 -47.801386,0.2043 -25.378174,0.17754 -27.784115,0.14571 -26.914892,-0.35612 z m 94.036261,-54.49822 c 2.24749,-1.6481 6.080015,-5.69046 6.080015,-6.41289 0,-0.65946 -1.062814,-0.71954 -2.759477,-0.156 -1.328783,0.44135 -2.349362,1.21289 -4.422838,3.34358 -2.636622,2.70938 -3.126737,3.6896 -2.272129,4.5442 0.633649,0.63365 0.800957,0.56826 3.374429,-1.31889 z"
         id="path3919"
         inkscape:connector-curvature="0" />
    </g>
  </g>
</svg>
